<svg width="20" height="20" viewBox="0 0 20 20" fill="none" xmlns="http://www.w3.org/2000/svg">
<path d="M7.49992 17.5C8.42039 17.5 9.16658 16.7538 9.16658 15.8334C9.16658 14.9129 8.42039 14.1667 7.49992 14.1667C6.57944 14.1667 5.83325 14.9129 5.83325 15.8334C5.83325 16.7538 6.57944 17.5 7.49992 17.5Z" stroke="white" stroke-width="1.5" stroke-linecap="round" stroke-linejoin="round"/>
<path d="M14.1667 17.5C15.0871 17.5 15.8333 16.7538 15.8333 15.8334C15.8333 14.9129 15.0871 14.1667 14.1667 14.1667C13.2462 14.1667 12.5 14.9129 12.5 15.8334C12.5 16.7538 13.2462 17.5 14.1667 17.5Z" stroke="white" stroke-width="1.5" stroke-linecap="round" stroke-linejoin="round"/>
<path d="M2.5 2.5H4.16667L5.83333 12.5C6.0131 13.0112 6.35412 13.4502 6.80502 13.7508C7.25592 14.0514 7.79229 14.1974 8.33333 14.1667H14.1667C14.7077 14.1974 15.2441 14.0514 15.695 13.7508C16.1459 13.4502 16.4869 13.0112 16.6667 12.5L17.5 6.66667H4.83333" stroke="white" stroke-width="1.5" stroke-linecap="round" stroke-linejoin="round"/>
</svg>
