<svg width="25" height="22" viewBox="0 0 25 22" fill="none" xmlns="http://www.w3.org/2000/svg">
<path d="M16.667 4.1665H8.33366C6.03247 4.1665 4.16699 6.03198 4.16699 8.33317V16.6665C4.16699 18.9677 6.03247 20.8332 8.33366 20.8332H16.667C18.9682 20.8332 20.8337 18.9677 20.8337 16.6665V8.33317C20.8337 6.03198 18.9682 4.1665 16.667 4.1665Z" stroke="white" stroke-width="1.5" stroke-linecap="round" stroke-linejoin="round"/>
<path d="M12.5 15.625C14.2259 15.625 15.625 14.2259 15.625 12.5C15.625 10.7741 14.2259 9.375 12.5 9.375C10.7741 9.375 9.375 10.7741 9.375 12.5C9.375 14.2259 10.7741 15.625 12.5 15.625Z" stroke="white" stroke-width="1.5" stroke-linecap="round" stroke-linejoin="round"/>
<path d="M17.1875 7.8125V7.8135" stroke="white" stroke-width="1.5" stroke-linecap="round" stroke-linejoin="round"/>
</svg>
